# xmcd
# 
# Track frame offsets:
#     150
#     22211
#     39862
#     53076
#     71751
#     87110
#     100372
#     116385
#     123204
#     143028
#     155385
#     171524
#     193118
#     209341
#     224965
#     243995
# 
# Disc length: 3474
# 
# Revision: 0
# Processed by: cddbd v1.5.2PL0 Copyright (c) Steve Scherf et al.
# Submitted via: BonkEnc v1.0
# 
DISCID=eb0d9010
DTITLE=Shania Twain - The Best
DYEAR=2002
DGENRE=Country
TTITLE0=From This Moment On
TTITLE1=Man I Feel Like A Woman!
TTITLE2=Come On Over
TTITLE3=Any Man Of Mine
TTITLE4=You've Got A Way
TTITLE5=What Made You Say Thet
TTITLE6=You're Still The One
TTITLE7=God Bless The Child
TTITLE8=You Win My Love
TTITLE9=God Ain't Gonna Getcha For That
TTITLE10=Love Gets Me Everytime
TTITLE11=The Woman In Me (Needs The Man In You)
TTITLE12=Don't Be Stupid (You Know I Love You)
TTITLE13=I'm Holdin' On To Love (To Say My Life)
TTITLE14=From This Moment (Live with Back Street Boys)
TTITLE15=You Are Still The One (Live)
EXTD=YEAR: 2002 ID3G:   2
EXTT0=
EXTT1=
EXTT2=
EXTT3=
EXTT4=
EXTT5=
EXTT6=
EXTT7=
EXTT8=
EXTT9=
EXTT10=
EXTT11=
EXTT12=
EXTT13=
EXTT14=
EXTT15=
PLAYORDER=
